<svg width="20" height="20" viewBox="0 0 20 20" fill="none" xmlns="http://www.w3.org/2000/svg">
<path d="M11.6693 9.16666H6.66927M8.33594 12.5H6.66927M13.3359 5.83332H6.66927M16.6693 5.66666V14.3333C16.6693 15.7335 16.6693 16.4335 16.3968 16.9683C16.1571 17.4387 15.7747 17.8212 15.3042 18.0608C14.7695 18.3333 14.0694 18.3333 12.6693 18.3333H7.33594C5.93581 18.3333 5.23574 18.3333 4.70096 18.0608C4.23056 17.8212 3.8481 17.4387 3.60842 16.9683C3.33594 16.4335 3.33594 15.7335 3.33594 14.3333V5.66666C3.33594 4.26653 3.33594 3.56646 3.60842 3.03168C3.8481 2.56128 4.23056 2.17882 4.70096 1.93914C5.23574 1.66666 5.93581 1.66666 7.33594 1.66666H12.6693C14.0694 1.66666 14.7695 1.66666 15.3042 1.93914C15.7747 2.17882 16.1571 2.56128 16.3968 3.03168C16.6693 3.56646 16.6693 4.26653 16.6693 5.66666Z" stroke="white" stroke-width="1.5" stroke-linecap="round" stroke-linejoin="round"/>
</svg>
