<svg width="20" height="20" viewBox="0 0 20 20" fill="none" xmlns="http://www.w3.org/2000/svg">
<path d="M1.66406 5.83334L8.46816 10.5962C9.01914 10.9819 9.29463 11.1747 9.59428 11.2494C9.85898 11.3154 10.1358 11.3154 10.4005 11.2494C10.7002 11.1747 10.9757 10.9819 11.5266 10.5962L18.3307 5.83334M5.66406 16.6667H14.3307C15.7309 16.6667 16.4309 16.6667 16.9657 16.3942C17.4361 16.1545 17.8186 15.7721 18.0582 15.3017C18.3307 14.7669 18.3307 14.0668 18.3307 12.6667V7.33334C18.3307 5.93321 18.3307 5.23315 18.0582 4.69837C17.8186 4.22796 17.4361 3.84551 16.9657 3.60583C16.4309 3.33334 15.7309 3.33334 14.3307 3.33334H5.66406C4.26393 3.33334 3.56387 3.33334 3.02909 3.60583C2.55868 3.84551 2.17623 4.22796 1.93655 4.69837C1.66406 5.23315 1.66406 5.93321 1.66406 7.33334V12.6667C1.66406 14.0668 1.66406 14.7669 1.93655 15.3017C2.17623 15.7721 2.55868 16.1545 3.02909 16.3942C3.56387 16.6667 4.26393 16.6667 5.66406 16.6667Z" stroke="white" stroke-width="1.5" stroke-linecap="round" stroke-linejoin="round"/>
</svg>
