<svg width="20" height="20" viewBox="0 0 20 20" fill="none" xmlns="http://www.w3.org/2000/svg">
<path d="M1.66406 1.66666H2.75253C2.95755 1.66666 3.06006 1.66666 3.14255 1.70436C3.21524 1.73758 3.27685 1.79101 3.32002 1.85828C3.36901 1.93461 3.38351 2.03609 3.4125 2.23904L3.80692 4.99999M3.80692 4.99999L4.6835 11.4428C4.79473 12.2604 4.85035 12.6692 5.04581 12.9769C5.21804 13.2481 5.46496 13.4637 5.75686 13.5978C6.08811 13.75 6.50068 13.75 7.32582 13.75H14.4574C15.2428 13.75 15.6356 13.75 15.9565 13.6087C16.2395 13.4841 16.4823 13.2832 16.6576 13.0285C16.8565 12.7397 16.93 12.3539 17.077 11.5823L18.18 5.7914C18.2317 5.51983 18.2576 5.38404 18.2201 5.27791C18.1872 5.1848 18.1223 5.10639 18.037 5.05667C17.9398 4.99999 17.8015 4.99999 17.5251 4.99999H3.80692ZM8.33073 17.5C8.33073 17.9602 7.95763 18.3333 7.4974 18.3333C7.03716 18.3333 6.66406 17.9602 6.66406 17.5C6.66406 17.0398 7.03716 16.6667 7.4974 16.6667C7.95763 16.6667 8.33073 17.0398 8.33073 17.5ZM14.9974 17.5C14.9974 17.9602 14.6243 18.3333 14.1641 18.3333C13.7038 18.3333 13.3307 17.9602 13.3307 17.5C13.3307 17.0398 13.7038 16.6667 14.1641 16.6667C14.6243 16.6667 14.9974 17.0398 14.9974 17.5Z" stroke="white" stroke-width="1.5" stroke-linecap="round" stroke-linejoin="round"/>
</svg>
