<svg width="20" height="20" viewBox="0 0 20 20" fill="none" xmlns="http://www.w3.org/2000/svg">
<path d="M4.9974 8.33332V11.6667M14.9974 8.33332V11.6667M1.66406 6.83332L1.66406 13.1667C1.66406 14.1001 1.66406 14.5668 1.84572 14.9233C2.00551 15.2369 2.26047 15.4919 2.57408 15.6517C2.9306 15.8333 3.39731 15.8333 4.33073 15.8333L15.6641 15.8333C16.5975 15.8333 17.0642 15.8333 17.4207 15.6517C17.7343 15.4919 17.9893 15.2369 18.1491 14.9233C18.3307 14.5668 18.3307 14.1001 18.3307 13.1667V6.83332C18.3307 5.8999 18.3307 5.43319 18.1491 5.07667C17.9893 4.76307 17.7343 4.5081 17.4207 4.34831C17.0642 4.16666 16.5975 4.16666 15.6641 4.16666L4.33073 4.16666C3.39731 4.16666 2.9306 4.16666 2.57408 4.34831C2.26048 4.5081 2.00551 4.76307 1.84572 5.07667C1.66406 5.43319 1.66406 5.8999 1.66406 6.83332ZM12.0807 9.99999C12.0807 11.1506 11.148 12.0833 9.9974 12.0833C8.8468 12.0833 7.91406 11.1506 7.91406 9.99999C7.91406 8.8494 8.8468 7.91666 9.9974 7.91666C11.148 7.91666 12.0807 8.8494 12.0807 9.99999Z" stroke="white" stroke-width="1.5" stroke-linecap="round" stroke-linejoin="round"/>
</svg>
