<svg width="20" height="20" viewBox="0 0 20 20" fill="none" xmlns="http://www.w3.org/2000/svg">
<path d="M13.3307 2.8898C14.5655 3.50343 15.4141 4.77762 15.4141 6.25C15.4141 7.72238 14.5655 8.99657 13.3307 9.6102M14.9974 13.972C16.2569 14.5419 17.3912 15.4708 18.3307 16.6667M1.66406 16.6667C3.28614 14.6021 5.48838 13.3333 7.91406 13.3333C10.3397 13.3333 12.542 14.6021 14.1641 16.6667M11.6641 6.25C11.6641 8.32107 9.98513 10 7.91406 10C5.84299 10 4.16406 8.32107 4.16406 6.25C4.16406 4.17893 5.84299 2.5 7.91406 2.5C9.98513 2.5 11.6641 4.17893 11.6641 6.25Z" stroke="#ECF3F8" stroke-width="1.5" stroke-linecap="round" stroke-linejoin="round"/>
</svg>
