<svg width="20" height="20" viewBox="0 0 20 20" fill="none" xmlns="http://www.w3.org/2000/svg">
<path d="M6.66406 6.66669H6.6724M1.66406 4.33335L1.66406 8.06212C1.66406 8.46977 1.66406 8.67359 1.71011 8.86541C1.75094 9.03547 1.81828 9.19804 1.90966 9.34716C2.01273 9.51536 2.15686 9.65948 2.44511 9.94773L8.83563 16.3383C9.82568 17.3283 10.3207 17.8233 10.8915 18.0088C11.3936 18.1719 11.9345 18.1719 12.4366 18.0088C13.0074 17.8233 13.5024 17.3283 14.4925 16.3383L16.3356 14.4951C17.3257 13.5051 17.8207 13.0101 18.0062 12.4392C18.1693 11.9371 18.1693 11.3963 18.0062 10.8941C17.8207 10.3233 17.3257 9.8283 16.3356 8.83826L9.94511 2.44774C9.65686 2.15948 9.51273 2.01536 9.34454 1.91229C9.19541 1.82091 9.03284 1.75357 8.86278 1.71274C8.67097 1.66669 8.46714 1.66669 8.05949 1.66669L4.33073 1.66669C3.39731 1.66669 2.9306 1.66669 2.57408 1.84834C2.26048 2.00813 2.00551 2.2631 1.84572 2.5767C1.66406 2.93322 1.66406 3.39993 1.66406 4.33335ZM7.08073 6.66669C7.08073 6.89681 6.89418 7.08335 6.66406 7.08335C6.43394 7.08335 6.2474 6.89681 6.2474 6.66669C6.2474 6.43657 6.43394 6.25002 6.66406 6.25002C6.89418 6.25002 7.08073 6.43657 7.08073 6.66669Z" stroke="white" stroke-width="1.5" stroke-linecap="round" stroke-linejoin="round"/>
</svg>
